<svg version="1.1" id="Layer_1" xmlns="http://www.w3.org/2000/svg" xmlns:xlink="http://www.w3.org/1999/xlink" x="0px" y="0px"
	 width="100%" viewBox="0 0 625 625" enable-background="new 0 0 625 625" xml:space="preserve">
<path fill="#E9EBDE" opacity="1.000000" stroke="none" 
	d="
M39.000000,626.000000 
	C26.336147,626.000000 13.672296,626.000000 1.006333,626.000000 
	C1.004222,417.715759 1.004222,209.431549 1.004222,1.073661 
	C209.237915,1.073661 417.475861,1.073661 625.856934,1.073661 
	C625.856934,209.333267 625.856934,417.666626 625.856934,626.000000 
	C616.594177,626.000000 607.263123,626.000000 597.505432,625.575928 
	C597.071289,605.535583 597.674805,585.895508 596.910767,566.308777 
	C595.811951,538.138550 590.539307,510.554626 583.188843,483.340393 
	C577.184937,461.111786 568.606140,439.892670 559.035767,418.664459 
	C563.048645,409.129425 560.603638,400.219208 557.127258,391.828827 
	C555.158875,387.077881 551.322449,382.842468 544.973389,382.699707 
	C544.664612,381.893097 544.426941,381.370026 544.157227,380.623413 
	C544.125122,380.399872 543.948181,379.984253 544.026306,379.522034 
	C544.118347,355.727264 544.817200,332.366882 543.872437,309.073181 
	C543.359253,296.419617 540.050598,283.879456 538.380310,271.402740 
	C542.309082,273.725220 542.611572,270.080078 543.522278,268.532837 
	C556.276794,246.864899 567.717224,224.503235 576.049805,200.762344 
	C579.590210,190.675171 582.061340,180.058945 583.605652,169.476974 
	C584.704468,161.947556 580.263794,159.275711 572.895813,161.592255 
	C559.118347,165.923965 545.406006,170.464493 531.610535,174.737137 
	C515.440674,179.745148 499.210999,184.560120 482.677673,189.312485 
	C467.840240,177.929138 452.688171,167.721634 436.051300,159.831177 
	C412.495361,148.659210 387.714966,141.021713 362.600891,134.379303 
	C359.490234,133.556564 358.125397,132.039856 356.849213,129.137131 
	C353.451202,121.408150 349.860779,113.692009 345.500610,106.482552 
	C342.492889,101.509338 339.946472,102.128967 337.473755,107.366074 
	C334.135284,114.436852 330.807129,121.513069 327.385742,128.543732 
	C326.565430,130.229370 325.394440,131.744354 323.884918,134.126678 
	C322.382050,131.589371 321.267944,129.989807 320.434723,128.255325 
	C315.536316,118.058403 310.721069,107.821587 305.840210,97.616203 
	C303.729340,93.202530 301.333984,92.707199 297.825562,96.055504 
	C296.393250,97.422455 294.932953,98.956360 294.083221,100.704849 
	C289.369049,110.405228 284.934601,120.242279 280.158875,129.911285 
	C279.283325,131.683929 277.522461,133.678986 275.750458,134.236023 
	C267.665314,136.777618 259.471649,139.008850 251.242294,141.050690 
	C216.552292,149.657822 184.615875,163.995972 156.372284,186.154861 
	C155.133957,187.126404 153.479492,187.567566 151.648651,188.124756 
	C126.094269,180.023163 100.908630,172.057251 75.727882,164.075958 
	C72.718636,163.122147 69.789925,161.854706 66.729179,161.135880 
	C61.149513,159.825424 58.234211,161.639694 57.740604,167.322891 
	C57.402245,171.218628 57.720879,175.349106 58.657684,179.149902 
	C66.412857,210.614182 81.026184,239.114426 97.050072,267.395630 
	C96.852852,268.943787 96.762543,270.113220 96.438850,271.214020 
	C92.419823,284.881256 90.597984,298.782471 90.763832,313.073517 
	C91.018845,335.049408 90.696655,357.032013 90.507553,379.107788 
	C90.236023,379.505005 90.299042,379.750580 90.679688,380.086487 
	C90.774559,380.232452 90.905396,380.555084 90.773102,380.949707 
	C90.564423,381.611115 90.488022,381.877838 90.242599,382.384644 
	C89.201088,383.348938 88.395973,384.179657 87.445618,384.780823 
	C78.401588,390.501892 73.816460,405.988678 78.156342,416.488678 
	C76.069267,421.387177 74.014755,425.908356 71.992798,430.444031 
	C44.197289,492.794830 34.585602,558.214478 39.000000,626.000000 
z"/>
<path fill="#7F3F97" opacity="1.000000" stroke="none" 
	d="
M39.468658,626.000000 
	C34.585602,558.214478 44.197289,492.794830 71.992798,430.444031 
	C74.014755,425.908356 76.069267,421.387177 78.407181,416.391357 
	C79.115829,415.584961 79.525948,415.246460 79.959274,415.332764 
	C80.392548,418.542053 80.698578,421.346497 81.228310,424.108002 
	C89.091118,465.096771 111.351547,496.819122 143.948853,522.021851 
	C163.395569,537.057129 184.736115,548.818909 207.019943,558.876221 
	C218.962250,564.266052 231.219482,569.104431 243.656403,573.218933 
	C264.151764,579.999573 285.328278,567.436707 289.430664,546.986694 
	C308.581665,549.960510 327.269104,549.450928 346.044037,546.815796 
	C349.360168,552.216187 352.452606,557.330750 355.792908,562.278015 
	C364.230377,574.774536 376.088989,578.828186 390.042236,574.006653 
	C406.503021,568.318665 422.923035,562.243835 438.709412,554.930725 
	C468.965179,540.914612 496.343323,522.556152 518.919861,497.608826 
	C531.323914,483.902100 541.442322,468.694183 547.600403,451.277924 
	C551.566528,440.061096 554.002258,428.303162 557.363892,416.965881 
	C558.058838,417.780426 558.513794,418.416840 558.968811,419.053223 
	C568.606140,439.892670 577.184937,461.111786 583.188843,483.340393 
	C590.539307,510.554626 595.811951,538.138550 596.910767,566.308777 
	C597.674805,585.895508 597.071289,605.535583 597.039368,625.575928 
	C581.645752,626.000000 566.291565,626.000000 550.393799,625.537842 
	C549.982239,620.923706 549.844116,616.742615 550.288452,612.624329 
	C554.158997,576.752808 551.315796,541.323059 543.493652,505.245117 
	C542.864624,507.891663 542.346558,509.627991 542.046692,511.401245 
	C539.076355,528.968750 532.803223,545.326538 523.882935,560.684509 
	C517.521118,571.637634 517.468018,571.535583 528.910400,577.064636 
	C530.496826,577.831177 531.664795,579.463928 533.026428,580.695679 
	C531.337646,581.536011 529.729675,582.776184 527.944031,583.137024 
	C523.686523,583.997498 519.345215,584.442871 513.578186,585.263611 
	C516.250427,587.779907 517.793518,589.161621 519.254517,590.625305 
	C521.470459,592.845459 523.884216,594.936951 525.712036,597.448486 
	C526.728699,598.845398 526.728333,600.982544 527.186401,602.786133 
	C525.297607,603.024597 523.257874,603.844421 521.546204,603.400269 
	C514.325867,601.526550 507.227417,599.187073 500.025116,597.236816 
	C498.546448,596.836365 496.320038,596.751343 495.272736,597.578064 
	C483.421265,606.933044 471.732422,616.494141 460.000000,626.000000 
	C365.312439,626.000000 270.624878,626.000000 175.226425,625.770752 
	C166.757858,619.802368 158.647095,614.479431 151.304749,608.250732 
	C122.337799,583.677307 101.732735,553.735901 93.491280,516.098755 
	C93.101402,514.318237 92.623695,512.557007 92.186905,510.786835 
	C89.928162,518.453369 88.450806,525.953247 87.453857,533.516418 
	C84.688805,554.493042 83.051147,575.523376 84.630295,596.717102 
	C85.356094,606.458008 85.559631,616.237854 86.000000,626.000000 
	C70.645775,626.000000 55.291546,626.000000 39.468658,626.000000 
z"/>
<path fill="#E8EADD" opacity="1.000000" stroke="none" 
	d="
M86.468658,626.000000 
	C85.559631,616.237854 85.356094,606.458008 84.630295,596.717102 
	C83.051147,575.523376 84.688805,554.493042 87.453857,533.516418 
	C88.450806,525.953247 89.928162,518.453369 92.186905,510.786835 
	C92.623695,512.557007 93.101402,514.318237 93.491280,516.098755 
	C101.732735,553.735901 122.337799,583.677307 151.304749,608.250732 
	C158.647095,614.479431 166.757858,619.802368 174.757767,625.770752 
	C145.645767,626.000000 116.291542,626.000000 86.468658,626.000000 
z"/>
<path fill="#E8E9DC" opacity="1.000000" stroke="none" 
	d="
M460.468658,626.000000 
	C471.732422,616.494141 483.421265,606.933044 495.272736,597.578064 
	C496.320038,596.751343 498.546448,596.836365 500.025116,597.236816 
	C507.227417,599.187073 514.325867,601.526550 521.546204,603.400269 
	C523.257874,603.844421 525.297607,603.024597 527.186401,602.786133 
	C526.728333,600.982544 526.728699,598.845398 525.712036,597.448486 
	C523.884216,594.936951 521.470459,592.845459 519.254517,590.625305 
	C517.793518,589.161621 516.250427,587.779907 513.578186,585.263611 
	C519.345215,584.442871 523.686523,583.997498 527.944031,583.137024 
	C529.729675,582.776184 531.337646,581.536011 533.026428,580.695679 
	C531.664795,579.463928 530.496826,577.831177 528.910400,577.064636 
	C517.468018,571.535583 517.521118,571.637634 523.882935,560.684509 
	C532.803223,545.326538 539.076355,528.968750 542.046692,511.401245 
	C542.346558,509.627991 542.864624,507.891663 543.493652,505.245117 
	C551.315796,541.323059 554.158997,576.752808 550.288452,612.624329 
	C549.844116,616.742615 549.982239,620.923706 549.925171,625.537842 
	C520.312439,626.000000 490.624878,626.000000 460.468658,626.000000 
z"/>
<path fill="#F5A51D" opacity="1.000000" stroke="none" 
	d="
M152.018875,188.255798 
	C153.479492,187.567566 155.133957,187.126404 156.372284,186.154861 
	C184.615875,163.995972 216.552292,149.657822 251.242294,141.050690 
	C259.471649,139.008850 267.665314,136.777618 275.750458,134.236023 
	C277.522461,133.678986 279.283325,131.683929 280.158875,129.911285 
	C284.934601,120.242279 289.369049,110.405228 294.083221,100.704849 
	C294.932953,98.956360 296.393250,97.422455 297.825562,96.055504 
	C301.333984,92.707199 303.729340,93.202530 305.840210,97.616203 
	C310.721069,107.821587 315.536316,118.058403 320.434723,128.255325 
	C321.267944,129.989807 322.382050,131.589371 323.884918,134.126678 
	C325.394440,131.744354 326.565430,130.229370 327.385742,128.543732 
	C330.807129,121.513069 334.135284,114.436852 337.473755,107.366074 
	C339.946472,102.128967 342.492889,101.509338 345.500610,106.482552 
	C349.860779,113.692009 353.451202,121.408150 356.849213,129.137131 
	C358.125397,132.039856 359.490234,133.556564 362.600891,134.379303 
	C387.714966,141.021713 412.495361,148.659210 436.051300,159.831177 
	C452.688171,167.721634 467.840240,177.929138 482.774353,189.603821 
	C487.446686,194.036148 491.692780,198.030807 496.121643,202.304291 
	C501.123383,207.738846 505.942383,212.894577 510.758362,218.047073 
	C515.551025,212.947311 519.938965,208.278183 524.326965,203.609039 
	C524.785522,203.938553 525.244141,204.268051 525.702698,204.597549 
	C525.702698,205.855621 526.028992,207.223663 525.648254,208.353424 
	C523.585144,214.475418 521.273438,220.513947 519.232422,226.642853 
	C518.829224,227.853485 518.724121,229.786758 519.411682,230.564011 
	C520.115601,231.359772 521.986389,231.420486 523.302063,231.303711 
	C524.993103,231.153625 526.639893,230.505981 529.796692,229.684845 
	C528.656982,233.072128 527.794128,235.086456 527.325928,237.188690 
	C526.888977,239.150330 526.117371,241.518860 526.801392,243.164490 
	C529.594910,249.885071 532.889832,256.397278 536.007324,263.365082 
	C536.677429,266.258667 537.340149,268.773407 538.002930,271.288116 
	C540.050598,283.879456 543.359253,296.419617 543.872437,309.073181 
	C544.817200,332.366882 544.118347,355.727264 543.588745,379.527405 
	C535.181885,379.344330 528.780518,382.591919 523.532898,388.063843 
	C518.272827,393.548706 513.437378,399.439209 508.370850,405.111786 
	C496.652527,418.231903 483.262604,429.438782 468.619720,439.109741 
	C464.004364,442.158020 458.832764,444.364105 454.090485,446.666687 
	C465.022247,435.577728 476.781250,425.589539 486.327393,413.808319 
	C506.101440,389.404480 517.069702,361.189362 517.956787,329.481934 
	C518.051697,326.089111 519.689148,324.803040 522.575439,324.047394 
	C527.389404,322.787048 532.229553,321.563904 536.922058,319.932343 
	C538.856750,319.259674 540.437927,317.570557 542.179932,316.343750 
	C542.084106,315.780396 541.988220,315.217072 541.892334,314.653717 
	C538.734985,313.426910 535.639587,311.990784 532.403015,311.031372 
	C529.082092,310.046967 525.622986,309.528656 522.224365,308.806366 
	C522.171570,308.314026 522.118774,307.821655 522.065979,307.329315 
	C525.647339,304.454742 529.369202,301.731995 532.730530,298.619720 
	C533.843018,297.589661 534.026489,295.556335 534.634705,293.981720 
	C533.260803,293.865936 531.888550,293.680908 530.512695,293.647644 
	C526.718018,293.556000 522.664673,294.294861 519.236572,293.145538 
	C517.565918,292.585419 517.061279,288.548462 516.027283,286.085968 
	C515.962891,285.932587 515.888550,285.783081 515.814270,285.634064 
	C510.708618,275.394135 505.796082,265.052307 500.456146,254.936035 
	C489.183228,233.580048 473.598938,215.768646 454.371948,201.301865 
	C419.588135,175.129791 380.396759,160.593689 336.874908,157.956100 
	C331.970642,157.658875 327.847198,156.705307 327.201538,150.520691 
	C326.862244,147.270569 325.758911,143.979675 324.380371,140.993515 
	C323.087128,138.192215 320.976837,135.768097 319.226135,133.178009 
	C317.487915,136.381363 315.612335,139.521332 314.088348,142.823532 
	C313.576965,143.931580 314.163208,145.496567 313.887238,146.774841 
	C313.498077,148.577255 312.773590,150.307251 312.114929,152.303131 
	C305.682037,149.510162 304.399933,141.577301 297.356079,139.993011 
	C297.190491,141.764511 296.932037,142.910934 297.011810,144.033295 
	C297.152283,146.009674 297.465057,147.976639 297.766785,149.938156 
	C298.502869,154.723816 296.748352,157.249741 291.960083,158.207214 
	C278.967590,160.805252 265.772156,162.658844 253.021469,166.141373 
	C222.575897,174.456787 195.234741,189.038422 171.615356,210.036911 
	C152.727325,226.829041 138.200043,246.943924 128.287827,270.318451 
	C127.625099,271.881287 125.544426,273.565826 123.889214,273.855194 
	C117.862549,274.908875 111.661095,275.023071 105.677414,276.238892 
	C102.352798,276.914459 99.328949,279.070190 96.169548,280.558807 
	C99.281380,282.728821 102.226997,285.214722 105.558311,286.967590 
	C108.162025,288.337616 111.244339,288.798035 114.622650,289.815857 
	C110.553131,296.068359 102.277245,296.206696 99.731781,303.732727 
	C102.214859,303.850708 103.971474,303.998535 105.728783,304.007263 
	C117.489632,304.065582 117.593948,304.626282 118.143547,316.445190 
	C118.735466,329.174530 118.987488,342.133453 121.637947,354.510376 
	C127.848961,383.514191 142.385986,408.285339 163.567108,429.089508 
	C169.013824,434.439270 174.571457,439.676117 179.695267,444.968750 
	C177.322571,444.184082 175.152847,443.682129 173.370331,442.563324 
	C152.208481,429.280853 134.115326,412.594055 118.429207,393.176483 
	C112.794403,386.201233 106.081215,380.481079 96.531685,379.769928 
	C95.367790,379.683228 94.124084,380.668243 92.582733,381.054565 
	C91.800529,380.820038 91.352959,380.687561 90.905396,380.555084 
	C90.905396,380.555084 90.774559,380.232452 90.751099,379.857117 
	C90.727646,379.481750 90.619370,379.011749 90.619370,379.011749 
	C90.696655,357.032013 91.018845,335.049408 90.763832,313.073517 
	C90.597984,298.782471 92.419823,284.881256 96.438850,271.214020 
	C96.762543,270.113220 96.852852,268.943787 97.314163,267.168518 
	C98.716911,263.031555 99.857094,259.532257 101.304321,255.864685 
	C105.393425,248.419083 109.175468,241.141800 113.087456,233.614471 
	C107.693016,232.391907 102.956596,231.520828 98.358757,230.175995 
	C96.540337,229.644104 95.030205,228.058243 93.379700,226.952286 
	C95.166504,225.657471 96.809227,223.571945 98.766960,223.215240 
	C104.785553,222.118622 110.940010,221.790451 117.006950,220.921341 
	C118.652382,220.685623 120.175018,219.592728 121.754021,218.893265 
	C120.862717,217.612396 120.036003,216.278946 119.053528,215.072311 
	C118.543846,214.446335 117.486763,214.180801 117.153069,213.514145 
	C116.402206,212.014084 115.948189,210.365463 115.373352,208.777298 
	C117.034683,208.275726 118.920090,206.995514 120.321060,207.398682 
	C129.546738,210.053528 136.105270,206.668839 141.323471,198.841492 
	C145.084747,195.208878 148.551819,191.732346 152.018875,188.255798 
z"/>
<path fill="#9965AC" opacity="1.000000" stroke="none" 
	d="
M90.773102,380.949707 
	C91.352959,380.687561 91.800529,380.820038 92.631981,381.395264 
	C94.728714,384.555237 96.441559,387.272491 98.243835,390.312439 
	C108.200760,405.430878 120.360168,418.185211 133.799118,429.700684 
	C164.275208,455.814880 199.416321,473.334534 237.916000,483.779266 
	C256.286133,488.762970 275.287292,491.420807 294.331940,495.279480 
	C296.428772,495.953217 298.196259,496.479706 299.727142,497.241577 
	C297.690613,500.656097 295.890686,503.835175 293.872620,507.281921 
	C289.472137,514.680847 285.289795,521.812195 280.848083,529.098755 
	C280.353333,529.792419 280.117950,530.330994 279.619629,531.082520 
	C277.073181,535.186035 274.789673,539.076477 272.266052,543.177612 
	C271.043427,544.867859 270.080048,546.360657 269.074432,547.824402 
	C266.718903,551.252991 264.343109,554.667725 261.602478,558.014771 
	C257.823151,556.679565 254.442856,555.341675 251.006531,554.167725 
	C223.723373,544.847107 197.351974,533.552612 172.720306,518.413391 
	C151.444168,505.336578 132.279800,489.755615 117.404762,469.596619 
	C111.361595,461.406799 107.074623,451.921143 101.884964,442.667786 
	C98.800819,430.887604 95.820290,419.464691 92.862823,407.624573 
	C92.238327,403.090118 91.590767,398.972839 90.866402,394.406433 
	C90.663605,390.019745 90.537621,386.082184 90.411629,382.144592 
	C90.488022,381.877838 90.564423,381.611115 90.773102,380.949707 
z"/>
<path fill="#9965AC" opacity="1.000000" stroke="none" 
	d="
M544.189270,380.846985 
	C544.426941,381.370026 544.664612,381.893097 544.906738,383.159302 
	C544.977844,387.888519 545.044556,391.874603 544.821716,396.165466 
	C544.326599,399.962555 544.121094,403.454834 543.677734,407.254456 
	C540.930298,417.972992 538.420776,428.384216 535.661743,439.050293 
	C528.616333,455.564270 519.351746,470.275055 507.277924,483.106354 
	C482.650391,509.278778 452.289581,526.908813 419.623291,540.835693 
	C404.970520,547.082764 389.896851,552.342468 374.666321,557.986206 
	C373.020111,556.510376 371.526367,555.230835 370.462067,553.660339 
	C367.873627,549.841003 365.484589,545.886597 362.928467,541.650879 
	C360.633911,537.764771 358.426117,534.214355 356.128052,530.363403 
	C355.591644,529.355225 355.145569,528.647644 354.549194,527.651001 
	C348.269501,517.223145 342.140045,507.084290 336.240479,496.675507 
	C338.313232,495.990082 340.156097,495.574615 342.445740,495.178406 
	C350.114319,494.119873 357.383850,493.291962 364.550262,491.923950 
	C415.317139,482.232727 462.179932,463.737915 501.988708,429.861847 
	C515.683533,418.207947 528.276001,405.412720 538.099731,389.734680 
	C540.286926,386.601379 542.238098,383.724182 544.189270,380.846985 
z"/>
<path fill="#ED9423" opacity="1.000000" stroke="none" 
	d="
M538.380371,271.402740 
	C537.340149,268.773407 536.677429,266.258667 536.146606,263.049103 
	C543.413269,248.125290 551.160706,234.161240 557.468018,219.574509 
	C561.702026,209.782639 564.772278,199.271698 566.724915,188.777634 
	C568.282104,180.409134 564.583130,178.354187 556.463318,180.994980 
	C537.544006,187.148102 518.579407,193.162354 499.668365,199.340424 
	C498.280884,199.793716 497.175446,201.110245 495.938873,202.025452 
	C491.692780,198.030807 487.446686,194.036148 483.103943,189.750153 
	C499.210999,184.560120 515.440674,179.745148 531.610535,174.737137 
	C545.406006,170.464493 559.118347,165.923965 572.895813,161.592255 
	C580.263794,159.275711 584.704468,161.947556 583.605652,169.476974 
	C582.061340,180.058945 579.590210,190.675171 576.049805,200.762344 
	C567.717224,224.503235 556.276794,246.864899 543.522278,268.532837 
	C542.611572,270.080078 542.309082,273.725220 538.380371,271.402740 
z"/>
<path fill="#ED9423" opacity="1.000000" stroke="none" 
	d="
M100.997269,256.032990 
	C99.857094,259.532257 98.716911,263.031555 97.312637,266.757904 
	C81.026184,239.114426 66.412857,210.614182 58.657684,179.149902 
	C57.720879,175.349106 57.402245,171.218628 57.740604,167.322891 
	C58.234211,161.639694 61.149513,159.825424 66.729179,161.135880 
	C69.789925,161.854706 72.718636,163.122147 75.727882,164.075958 
	C100.908630,172.057251 126.094269,180.023163 151.648651,188.124756 
	C148.551819,191.732346 145.084747,195.208878 140.938278,198.791748 
	C137.393158,198.049561 134.507584,197.262436 131.665024,196.342392 
	C115.540916,191.123520 99.446396,185.812332 83.300407,180.662354 
	C76.701332,178.557510 73.374321,181.096741 74.120461,187.758224 
	C74.596893,192.011719 75.163361,196.441345 76.767021,200.349884 
	C83.450783,216.639999 90.526581,232.769623 97.503174,248.938858 
	C98.546143,251.356094 99.826653,253.670837 100.997269,256.032990 
z"/>
<path fill="#EFA01B" opacity="1.000000" stroke="none" 
	d="
M544.157227,380.623413 
	C542.238098,383.724182 540.286926,386.601379 537.730103,389.747498 
	C533.465637,392.128540 529.249451,393.645111 526.245178,396.456665 
	C513.796997,408.106049 502.306641,420.838715 489.372955,431.896912 
	C464.057587,453.541382 434.494385,467.652313 402.831726,477.478027 
	C399.689301,478.453186 396.243744,478.451569 393.182068,478.645996 
	C394.320618,477.962555 395.206604,477.515228 396.112732,477.113434 
	C406.982361,472.293610 418.099792,467.955627 428.650940,462.518463 
	C437.417786,458.000824 445.519470,452.192352 453.915771,446.955627 
	C458.832764,444.364105 464.004364,442.158020 468.619720,439.109741 
	C483.262604,429.438782 496.652527,418.231903 508.370850,405.111786 
	C513.437378,399.439209 518.272827,393.548706 523.532898,388.063843 
	C528.780518,382.591919 535.181885,379.344330 543.510620,379.989624 
	C543.948181,379.984253 544.125122,380.399872 544.157227,380.623413 
z"/>
<path fill="#E1E0D2" opacity="1.000000" stroke="none" 
	d="
M545.111328,395.860657 
	C545.044556,391.874603 544.977844,387.888519 544.977783,383.442871 
	C551.322449,382.842468 555.158875,387.077881 557.127258,391.828827 
	C560.603638,400.219208 563.048645,409.129425 559.035767,418.664459 
	C558.513794,418.416840 558.058838,417.780426 557.200623,416.657654 
	C552.902039,409.401062 549.006714,402.630859 545.111328,395.860657 
z"/>
<path fill="#E3DBC6" opacity="1.000000" stroke="none" 
	d="
M90.242599,382.384644 
	C90.537621,386.082184 90.663605,390.019745 90.712769,394.724915 
	C87.069321,401.964325 83.502693,408.436127 79.936066,414.907928 
	C79.525948,415.246460 79.115829,415.584961 78.454880,416.020813 
	C73.816460,405.988678 78.401588,390.501892 87.445618,384.780823 
	C88.395973,384.179657 89.201088,383.348938 90.242599,382.384644 
z"/>
<path fill="#E3DBC6" opacity="1.000000" stroke="none" 
	d="
M90.507553,379.107788 
	C90.619370,379.011749 90.727646,379.481750 90.656227,379.711121 
	C90.299042,379.750580 90.236023,379.505005 90.507553,379.107788 
z"/>
<path fill="#773A89" opacity="1.000000" stroke="none" 
	d="
M544.821716,396.165466 
	C549.006714,402.630859 552.902039,409.401062 556.960632,416.479523 
	C554.002258,428.303162 551.566528,440.061096 547.600403,451.277924 
	C541.442322,468.694183 531.323914,483.902100 518.919861,497.608826 
	C496.343323,522.556152 468.965179,540.914612 438.709412,554.930725 
	C422.923035,562.243835 406.503021,568.318665 390.042236,574.006653 
	C376.088989,578.828186 364.230377,574.774536 355.792908,562.278015 
	C352.452606,557.330750 349.360168,552.216187 346.291992,546.685181 
	C347.300171,545.838074 348.171234,545.483459 349.443756,545.115356 
	C351.174988,545.029602 352.504822,544.957336 354.112823,545.096802 
	C356.363434,548.381348 358.291962,551.483337 360.316803,554.521179 
	C365.717987,562.624634 372.802948,568.065430 383.037384,566.822510 
	C388.419952,566.168823 393.834747,564.726624 398.913177,562.794617 
	C431.613586,550.354004 463.049530,535.591431 490.528351,513.353455 
	C511.959290,496.009888 529.230957,475.544006 539.450439,449.763458 
	C544.096191,438.043671 548.018982,425.923706 546.881104,412.983032 
	C546.697998,410.900208 544.943665,408.955597 543.915588,406.947113 
	C544.121094,403.454834 544.326599,399.962555 544.821716,396.165466 
z"/>
<path fill="#773989" opacity="1.000000" stroke="none" 
	d="
M79.959274,415.332764 
	C83.502693,408.436127 87.069321,401.964325 90.789581,395.174042 
	C91.590767,398.972839 92.238327,403.090118 92.484032,407.636108 
	C91.080566,411.124573 88.743904,414.460175 89.309174,417.196228 
	C91.715721,428.844452 93.725540,440.826721 98.175636,451.752014 
	C110.124672,481.087769 131.282013,503.222931 156.740051,521.374817 
	C182.796829,539.953552 211.644424,553.167908 241.648178,563.879944 
	C246.960983,565.776733 253.117096,567.031067 258.609375,566.354492 
	C270.780334,564.855164 276.220459,555.092896 281.393494,545.152344 
	C283.164337,545.382141 284.574066,545.637024 286.297974,545.967590 
	C287.408051,546.360474 288.203888,546.677612 288.999756,546.994751 
	C285.328278,567.436707 264.151764,579.999573 243.656403,573.218933 
	C231.219482,569.104431 218.962250,564.266052 207.019943,558.876221 
	C184.736115,548.818909 163.395569,537.057129 143.948853,522.021851 
	C111.351547,496.819122 89.091118,465.096771 81.228310,424.108002 
	C80.698578,421.346497 80.392548,418.542053 79.959274,415.332764 
z"/>
<path fill="#573821" opacity="1.000000" stroke="none" 
	d="
M289.430664,546.986694 
	C288.203888,546.677612 287.408051,546.360474 286.312683,545.607483 
	C287.669922,541.482910 289.326660,537.794189 291.359741,534.073914 
	C292.490753,534.030029 293.245392,534.017700 294.369843,534.192749 
	C310.499847,536.831360 326.222687,536.446289 342.285461,533.805908 
	C343.397644,533.799316 344.139526,533.744751 344.916504,534.085449 
	C346.315186,538.030090 347.678772,541.579468 349.042328,545.128906 
	C348.171234,545.483459 347.300171,545.838074 346.181152,546.323242 
	C327.269104,549.450928 308.581665,549.960510 289.430664,546.986694 
z"/>
<path fill="#F7C847" opacity="1.000000" stroke="none" 
	d="
M454.090485,446.666718 
	C445.519470,452.192352 437.417786,458.000824 428.650940,462.518463 
	C418.099792,467.955627 406.982361,472.293610 396.112732,477.113434 
	C395.206604,477.515228 394.320618,477.962555 392.786865,478.673401 
	C390.067108,479.487793 388.000732,480.087646 385.901886,480.535706 
	C373.942291,483.088684 361.974945,485.605499 349.599304,488.163025 
	C328.453308,491.251984 307.720215,491.104309 286.550873,488.116180 
	C272.084290,485.038483 258.055603,481.998871 243.775375,478.707275 
	C229.524109,472.047211 215.318512,466.044006 201.605865,459.071320 
	C194.004410,455.206024 187.226974,449.720215 180.078125,444.964844 
	C174.571457,439.676117 169.013824,434.439270 163.567108,429.089508 
	C142.385986,408.285339 127.848961,383.514191 121.637947,354.510376 
	C118.987488,342.133453 118.735466,329.174530 118.143547,316.445190 
	C117.593948,304.626282 117.489632,304.065582 105.728783,304.007263 
	C103.971474,303.998535 102.214859,303.850708 99.731781,303.732727 
	C102.277245,296.206696 110.553131,296.068359 114.622650,289.815857 
	C111.244339,288.798035 108.162025,288.337616 105.558311,286.967590 
	C102.226997,285.214722 99.281380,282.728821 96.169548,280.558807 
	C99.328949,279.070190 102.352798,276.914459 105.677414,276.238892 
	C111.661095,275.023071 117.862549,274.908875 123.889214,273.855194 
	C125.544426,273.565826 127.625099,271.881287 128.287827,270.318451 
	C138.200043,246.943924 152.727325,226.829041 171.615356,210.036911 
	C195.234741,189.038422 222.575897,174.456787 253.021469,166.141373 
	C265.772156,162.658844 278.967590,160.805252 291.960083,158.207214 
	C296.748352,157.249741 298.502869,154.723816 297.766785,149.938156 
	C297.465057,147.976639 297.152283,146.009674 297.011810,144.033295 
	C296.932037,142.910934 297.190491,141.764511 297.356079,139.993011 
	C304.399933,141.577301 305.682037,149.510162 312.114929,152.303131 
	C312.773590,150.307251 313.498077,148.577255 313.887238,146.774841 
	C314.163208,145.496567 313.576965,143.931580 314.088348,142.823532 
	C315.612335,139.521332 317.487915,136.381363 319.226135,133.178009 
	C320.976837,135.768097 323.087128,138.192215 324.380371,140.993515 
	C325.758911,143.979675 326.862244,147.270569 327.201538,150.520691 
	C327.847198,156.705307 331.970642,157.658875 336.874908,157.956100 
	C380.396759,160.593689 419.588135,175.129791 454.371948,201.301865 
	C473.598938,215.768646 489.183228,233.580048 500.456146,254.936035 
	C505.796082,265.052307 510.708618,275.394135 515.814270,285.634064 
	C515.888550,285.783081 515.962891,285.932587 516.027283,286.085968 
	C517.061279,288.548462 517.565918,292.585419 519.236572,293.145538 
	C522.664673,294.294861 526.718018,293.556000 530.512695,293.647644 
	C531.888550,293.680908 533.260803,293.865936 534.634705,293.981720 
	C534.026489,295.556335 533.843018,297.589661 532.730530,298.619720 
	C529.369202,301.731995 525.647339,304.454742 522.065979,307.329315 
	C522.118774,307.821655 522.171570,308.314026 522.224365,308.806366 
	C525.622986,309.528656 529.082092,310.046967 532.403015,311.031372 
	C535.639587,311.990784 538.734985,313.426910 541.892334,314.653717 
	C541.988220,315.217072 542.084106,315.780396 542.179932,316.343750 
	C540.437927,317.570557 538.856750,319.259674 536.922058,319.932343 
	C532.229553,321.563904 527.389404,322.787048 522.575439,324.047394 
	C519.689148,324.803040 518.051697,326.089111 517.956787,329.481934 
	C517.069702,361.189362 506.101440,389.404480 486.327393,413.808319 
	C476.781250,425.589539 465.022247,435.577728 454.090485,446.666718 
M349.818939,357.201263 
	C329.699371,357.184296 309.579773,357.167297 288.481476,357.137177 
	C284.869202,357.137177 281.256927,357.137177 277.138855,357.137177 
	C277.819702,369.544617 283.589447,378.223511 293.472687,383.917908 
	C310.720703,393.855591 328.360260,393.992554 345.432678,383.604279 
	C354.871979,377.860626 361.090149,369.549225 361.011841,357.166077 
	C357.292053,357.166077 354.003754,357.166077 349.818939,357.201263 
M481.874084,358.539948 
	C463.253235,348.194794 443.935089,348.736450 424.513306,355.492889 
	C419.450623,357.254120 414.038422,360.400208 414.132812,366.967316 
	C414.228333,373.610413 419.586823,376.358673 424.832245,378.803528 
	C425.130524,378.942535 425.485138,378.958130 425.788513,379.089081 
	C436.705505,383.802277 448.324371,383.880310 459.678406,382.673584 
	C466.894318,381.906586 474.270142,379.235321 480.753357,375.847168 
	C488.840637,371.620789 488.976624,365.522491 481.874084,358.539948 
M201.644608,353.751556 
	C184.071396,347.873474 166.763885,348.267334 149.835373,356.109131 
	C145.784424,357.985596 142.320877,360.686768 142.056488,365.622162 
	C141.775192,370.873322 145.658173,373.514404 149.351349,376.111206 
	C150.422562,376.864471 151.720154,377.308472 152.938492,377.837799 
	C164.708115,382.951721 177.133209,383.077911 189.480042,381.687256 
	C195.443253,381.015594 201.364944,378.727051 206.948380,376.336639 
	C211.225418,374.505463 215.013000,371.263306 214.929932,365.864258 
	C214.850006,360.668091 211.092606,358.065247 206.940414,355.985138 
	C205.459381,355.243225 203.910782,354.636169 201.644608,353.751556 
M226.605225,258.752441 
	C225.478760,258.471924 224.360733,258.150391 223.224579,257.917053 
	C206.700195,254.523499 190.168610,261.355042 181.195419,275.273071 
	C172.029800,289.489594 172.559250,307.431976 182.550140,321.180450 
	C192.133209,334.367706 208.948517,340.307922 225.000092,336.176392 
	C241.618225,331.898987 254.126160,317.230042 255.006943,300.985199 
	C256.089905,281.011383 246.085892,265.798615 226.605225,258.752441 
M432.374634,336.994598 
	C455.688568,332.066498 469.930267,311.682526 465.459930,289.640106 
	C461.153015,268.403656 440.700623,253.841324 420.093597,257.338806 
	C397.411316,261.188446 382.907349,281.002106 386.108429,303.765381 
	C389.085602,324.936707 409.385468,339.816437 432.374634,336.994598 
M329.817352,323.569489 
	C322.120361,319.444763 314.437195,320.071777 306.955994,323.985199 
	C303.276031,325.910187 302.900482,330.124603 306.080170,331.900116 
	C309.020508,333.542023 312.062439,335.401367 315.280182,336.022949 
	C317.937347,336.536163 320.951508,335.534241 323.739410,334.902954 
	C325.230682,334.565247 326.515045,333.373199 328.001709,332.944885 
	C333.410675,331.386383 334.279022,328.350372 329.817352,323.569489 
M320.016602,344.685211 
	C319.728546,343.169586 319.440460,341.653931 319.152405,340.138306 
	C318.688660,340.207184 318.224915,340.276093 317.761169,340.344971 
	C317.761169,344.478912 317.761169,348.612823 317.761169,352.746765 
	C318.365448,352.775055 318.969727,352.803345 319.574005,352.831635 
	C319.718109,350.418701 319.862213,348.005737 320.016602,344.685211 
z"/>
<path fill="#DC6A2D" opacity="1.000000" stroke="none" 
	d="
M496.121643,202.304276 
	C497.175446,201.110245 498.280884,199.793716 499.668365,199.340424 
	C518.579407,193.162354 537.544006,187.148102 556.463318,180.994980 
	C564.583130,178.354187 568.282104,180.409134 566.724915,188.777634 
	C564.772278,199.271698 561.702026,209.782639 557.468018,219.574509 
	C551.160706,234.161240 543.413269,248.125290 536.139282,262.670258 
	C532.889832,256.397278 529.594910,249.885071 526.801392,243.164490 
	C526.117371,241.518860 526.888977,239.150330 527.325928,237.188690 
	C527.794128,235.086456 528.656982,233.072128 529.796692,229.684845 
	C526.639893,230.505981 524.993103,231.153625 523.302063,231.303711 
	C521.986389,231.420486 520.115601,231.359772 519.411682,230.564011 
	C518.724121,229.786758 518.829224,227.853485 519.232422,226.642853 
	C521.273438,220.513947 523.585144,214.475418 525.648254,208.353424 
	C526.028992,207.223663 525.702698,205.855621 525.702698,204.597549 
	C525.244141,204.268051 524.785522,203.938553 524.326965,203.609039 
	C519.938965,208.278183 515.551025,212.947311 510.758362,218.047073 
	C505.942383,212.894577 501.123383,207.738846 496.121643,202.304276 
z"/>
<path fill="#DC6A2D" opacity="1.000000" stroke="none" 
	d="
M101.304321,255.864685 
	C99.826653,253.670837 98.546143,251.356094 97.503174,248.938858 
	C90.526581,232.769623 83.450783,216.639999 76.767021,200.349884 
	C75.163361,196.441345 74.596893,192.011719 74.120461,187.758224 
	C73.374321,181.096741 76.701332,178.557510 83.300407,180.662354 
	C99.446396,185.812332 115.540916,191.123520 131.665024,196.342392 
	C134.507584,197.262436 137.393158,198.049561 140.644058,198.947815 
	C136.105270,206.668839 129.546738,210.053528 120.321060,207.398682 
	C118.920090,206.995514 117.034683,208.275726 115.373352,208.777298 
	C115.948189,210.365463 116.402206,212.014084 117.153069,213.514145 
	C117.486763,214.180801 118.543846,214.446335 119.053528,215.072311 
	C120.036003,216.278946 120.862717,217.612396 121.754021,218.893265 
	C120.175018,219.592728 118.652382,220.685623 117.006950,220.921341 
	C110.940010,221.790451 104.785553,222.118622 98.766960,223.215240 
	C96.809227,223.571945 95.166504,225.657471 93.379700,226.952286 
	C95.030205,228.058243 96.540337,229.644104 98.358757,230.175995 
	C102.956596,231.520828 107.693016,232.391907 113.087456,233.614471 
	C109.175468,241.141800 105.393425,248.419083 101.304321,255.864685 
z"/>
<path fill="#F0A11B" opacity="1.000000" stroke="none" 
	d="
M179.695251,444.968750 
	C187.226974,449.720215 194.004410,455.206024 201.605865,459.071320 
	C215.318512,466.044006 229.524109,472.047211 243.531860,478.966278 
	C242.746490,479.506561 241.879333,479.761963 241.170929,479.530792 
	C232.479538,476.694794 223.669830,474.150665 215.162292,470.834381 
	C182.245895,458.003510 152.469788,440.220184 127.918526,414.413330 
	C122.303703,408.511383 117.103233,402.144257 111.000298,396.804779 
	C107.449135,393.697815 102.483559,392.207489 98.154411,389.989746 
	C96.441559,387.272491 94.728714,384.555237 92.966614,381.497314 
	C94.124084,380.668243 95.367790,379.683228 96.531685,379.769928 
	C106.081215,380.481079 112.794403,386.201233 118.429207,393.176483 
	C134.115326,412.594055 152.208481,429.280853 173.370331,442.563324 
	C175.152847,443.682129 177.322571,444.184082 179.695251,444.968750 
z"/>
<path fill="#6D3477" opacity="1.000000" stroke="none" 
	d="
M281.032379,545.177368 
	C276.220459,555.092896 270.780334,564.855164 258.609375,566.354492 
	C253.117096,567.031067 246.960983,565.776733 241.648178,563.879944 
	C211.644424,553.167908 182.796829,539.953552 156.740051,521.374817 
	C131.282013,503.222931 110.124672,481.087769 98.175636,451.752014 
	C93.725540,440.826721 91.715721,428.844452 89.309174,417.196228 
	C88.743904,414.460175 91.080566,411.124573 92.460968,408.053284 
	C95.820290,419.464691 98.800819,430.887604 101.751663,442.982422 
	C101.906540,445.243652 101.638306,447.079559 102.347992,448.382935 
	C107.565384,457.964844 112.395699,467.830078 118.445274,476.871857 
	C133.145157,498.842621 153.814209,514.355652 176.010956,528.011353 
	C195.911255,540.254272 217.205811,549.630005 239.049820,557.694214 
	C244.773376,559.807251 251.207458,560.151611 257.368561,560.806580 
	C258.791779,560.957886 260.434052,559.048950 261.975525,558.088074 
	C264.343109,554.667725 266.718903,551.252991 269.074432,547.824402 
	C270.080048,546.360657 271.043427,544.867859 272.667145,543.280762 
	C275.882996,543.841248 278.457703,544.509338 281.032379,545.177368 
z"/>
<path fill="#E6981C" opacity="1.000000" stroke="none" 
	d="
M98.243835,390.312439 
	C102.483559,392.207489 107.449135,393.697815 111.000298,396.804779 
	C117.103233,402.144257 122.303703,408.511383 127.918526,414.413330 
	C152.469788,440.220184 182.245895,458.003510 215.162292,470.834381 
	C223.669830,474.150665 232.479538,476.694794 241.170929,479.530792 
	C241.879333,479.761963 242.746490,479.506561 243.783401,479.218262 
	C258.055603,481.998871 272.084290,485.038483 286.609009,488.446442 
	C289.404236,490.920563 291.703430,493.026367 294.002625,495.132141 
	C275.287292,491.420807 256.286133,488.762970 237.916000,483.779266 
	C199.416321,473.334534 164.275208,455.814880 133.799118,429.700684 
	C120.360168,418.185211 108.200760,405.430878 98.243835,390.312439 
z"/>
<path fill="#F0A21C" opacity="1.000000" stroke="none" 
	d="
M294.331940,495.279449 
	C291.703430,493.026367 289.404236,490.920563 287.046906,488.484528 
	C307.720215,491.104309 328.453308,491.251984 349.539001,488.502228 
	C348.629608,489.700745 347.317413,490.524170 346.122925,491.492767 
	C344.695709,492.650055 343.369141,493.931488 341.998962,495.159119 
	C340.156097,495.574615 338.313232,495.990082 335.947418,496.905334 
	C332.285614,508.507080 329.146759,519.609009 325.544769,530.809143 
	C319.950745,530.841797 314.819885,530.776306 309.569092,530.328674 
	C306.287384,518.966431 303.125580,507.986328 299.963776,497.006195 
	C298.196259,496.479706 296.428772,495.953217 294.331940,495.279449 
z"/>
<path fill="#663069" opacity="1.000000" stroke="none" 
	d="
M261.602478,558.014771 
	C260.434052,559.048950 258.791779,560.957886 257.368561,560.806580 
	C251.207458,560.151611 244.773376,559.807251 239.049820,557.694214 
	C217.205811,549.630005 195.911255,540.254272 176.010956,528.011353 
	C153.814209,514.355652 133.145157,498.842621 118.445274,476.871857 
	C112.395699,467.830078 107.565384,457.964844 102.347992,448.382935 
	C101.638306,447.079559 101.906540,445.243652 101.855278,443.339722 
	C107.074623,451.921143 111.361595,461.406799 117.404762,469.596619 
	C132.279800,489.755615 151.444168,505.336578 172.720306,518.413391 
	C197.351974,533.552612 223.723373,544.847107 251.006531,554.167725 
	C254.442856,555.341675 257.823151,556.679565 261.602478,558.014771 
z"/>
<path fill="#56361E" opacity="1.000000" stroke="none" 
	d="
M299.727142,497.241577 
	C303.125580,507.986328 306.287384,518.966431 309.045288,530.379272 
	C303.773407,530.574036 298.905396,530.336060 293.836914,529.979492 
	C293.355774,529.718018 293.120911,529.520630 292.955994,528.873657 
	C293.660736,526.638489 294.459900,524.832336 294.996948,522.951233 
	C296.069702,519.193909 297.436920,515.432251 297.758453,511.594879 
	C297.876984,510.180389 295.389587,508.547546 294.090790,507.014282 
	C295.890686,503.835175 297.690613,500.656097 299.727142,497.241577 
z"/>
<path fill="#4C2F1A" opacity="1.000000" stroke="none" 
	d="
M293.872620,507.281921 
	C295.389587,508.547546 297.876984,510.180389 297.758453,511.594879 
	C297.436920,515.432251 296.069702,519.193909 294.996948,522.951233 
	C294.459900,524.832336 293.660736,526.638489 292.503204,528.837769 
	C288.386688,529.112488 284.747101,529.028015 281.107483,528.943542 
	C285.289795,521.812195 289.472137,514.680847 293.872620,507.281921 
z"/>
<path fill="#4C2F1A" opacity="1.000000" stroke="none" 
	d="
M281.393494,545.152344 
	C278.457703,544.509338 275.882996,543.841248 272.907227,543.070068 
	C274.789673,539.076477 277.073181,535.186035 279.959351,531.268494 
	C284.035797,532.196045 287.509613,533.150757 290.983398,534.105469 
	C289.326660,537.794189 287.669922,541.482910 285.998474,545.531738 
	C284.574066,545.637024 283.164337,545.382141 281.393494,545.152344 
z"/>
<path fill="#6E3478" opacity="1.000000" stroke="none" 
	d="
M291.359741,534.073914 
	C287.509613,533.150757 284.035797,532.196045 280.222290,531.055420 
	C280.117950,530.330994 280.353333,529.792419 280.848083,529.098755 
	C284.747101,529.028015 288.386688,529.112488 292.479065,529.232910 
	C293.120911,529.520630 293.355774,529.718018 293.822693,530.368469 
	C294.006012,531.919128 294.003021,532.962280 294.000061,534.005371 
	C293.245392,534.017700 292.490753,534.030029 291.359741,534.073914 
z"/>
<path fill="#6E3478" opacity="1.000000" stroke="none" 
	d="
M543.677734,407.254456 
	C544.943665,408.955597 546.697998,410.900208 546.881104,412.983032 
	C548.018982,425.923706 544.096191,438.043671 539.450439,449.763458 
	C529.230957,475.544006 511.959290,496.009888 490.528351,513.353455 
	C463.049530,535.591431 431.613586,550.354004 398.913177,562.794617 
	C393.834747,564.726624 388.419952,566.168823 383.037384,566.822510 
	C372.802948,568.065430 365.717987,562.624634 360.316803,554.521179 
	C358.291962,551.483337 356.363434,548.381348 354.400757,544.860107 
	C357.278717,543.603271 360.146973,542.794922 363.015228,541.986572 
	C365.484589,545.886597 367.873627,549.841003 370.462067,553.660339 
	C371.526367,555.230835 373.020111,556.510376 374.729889,558.368286 
	C376.142090,559.532959 377.159424,560.885986 378.140900,560.860535 
	C382.424103,560.749023 387.053345,561.173889 390.910889,559.706116 
	C406.427917,553.801819 422.056122,547.994751 436.986755,540.791138 
	C458.109589,530.599854 477.858734,518.153259 495.457092,502.295746 
	C511.524658,487.817535 524.285400,471.144897 533.087280,451.492035 
	C534.823364,447.615753 535.009949,443.045563 535.911194,438.795441 
	C538.420776,428.384216 540.930298,417.972992 543.677734,407.254456 
z"/>
<path fill="#E6981C" opacity="1.000000" stroke="none" 
	d="
M342.445740,495.178406 
	C343.369141,493.931488 344.695709,492.650055 346.122925,491.492767 
	C347.317413,490.524170 348.629608,489.700745 349.949951,488.473816 
	C361.974945,485.605499 373.942291,483.088684 385.901886,480.535706 
	C388.000732,480.087646 390.067108,479.487793 392.543701,478.930664 
	C396.243744,478.451569 399.689301,478.453186 402.831726,477.478027 
	C434.494385,467.652313 464.057587,453.541382 489.372955,431.896912 
	C502.306641,420.838715 513.796997,408.106049 526.245178,396.456665 
	C529.249451,393.645111 533.465637,392.128540 537.494141,390.003632 
	C528.276001,405.412720 515.683533,418.207947 501.988708,429.861847 
	C462.179932,463.737915 415.317139,482.232727 364.550262,491.923950 
	C357.383850,493.291962 350.114319,494.119873 342.445740,495.178406 
z"/>
<path fill="#66306A" opacity="1.000000" stroke="none" 
	d="
M535.661621,439.050293 
	C535.009949,443.045563 534.823364,447.615753 533.087280,451.492035 
	C524.285400,471.144897 511.524658,487.817535 495.457092,502.295746 
	C477.858734,518.153259 458.109589,530.599854 436.986755,540.791138 
	C422.056122,547.994751 406.427917,553.801819 390.910889,559.706116 
	C387.053345,561.173889 382.424103,560.749023 378.140900,560.860535 
	C377.159424,560.885986 376.142090,559.532959 375.077698,558.432251 
	C389.896851,552.342468 404.970520,547.082764 419.623291,540.835693 
	C452.289581,526.908813 482.650391,509.278778 507.277924,483.106354 
	C519.351746,470.275055 528.616333,455.564270 535.661621,439.050293 
z"/>
<path fill="#53341C" opacity="1.000000" stroke="none" 
	d="
M326.007874,530.710938 
	C329.146759,519.609009 332.285614,508.507080 335.717529,497.175293 
	C342.140045,507.084290 348.269501,517.223145 354.182251,527.765625 
	C349.966614,528.804504 345.967682,529.439636 341.543427,530.059631 
	C336.081329,530.266602 331.044617,530.488770 326.007874,530.710938 
z"/>
<path fill="#4D2F1B" opacity="1.000000" stroke="none" 
	d="
M362.928467,541.650879 
	C360.146973,542.794922 357.278717,543.603271 354.122559,544.648315 
	C352.504822,544.957336 351.174988,545.029602 349.443756,545.115356 
	C347.678772,541.579468 346.315186,538.030090 345.228271,533.893311 
	C349.076050,532.425293 352.647186,531.544617 356.218323,530.663940 
	C358.426117,534.214355 360.633911,537.764771 362.928467,541.650879 
z"/>
<path fill="#6D3574" opacity="1.000000" stroke="none" 
	d="
M356.128052,530.363342 
	C352.647186,531.544617 349.076050,532.425293 345.193146,533.498108 
	C344.139526,533.744751 343.397644,533.799316 342.311340,533.441040 
	C341.967499,532.043762 341.968140,531.059326 341.968781,530.074829 
	C345.967682,529.439636 349.966614,528.804504 354.332489,528.054688 
	C355.145569,528.647644 355.591644,529.355225 356.128052,530.363342 
z"/>
<path fill="#7D3E93" opacity="1.000000" stroke="none" 
	d="
M341.543427,530.059631 
	C341.968140,531.059326 341.967499,532.043762 341.940979,533.393066 
	C326.222687,536.446289 310.499847,536.831360 294.369843,534.192749 
	C294.003021,532.962280 294.006012,531.919128 294.023193,530.487061 
	C298.905396,530.336060 303.773407,530.574036 309.165192,530.761353 
	C314.819885,530.776306 319.950745,530.841797 325.544739,530.809082 
	C331.044617,530.488770 336.081329,530.266602 341.543427,530.059631 
z"/>
<path fill="#F6B32D" opacity="1.000000" stroke="none" 
	d="
M482.162170,358.771423 
	C488.976624,365.522491 488.840637,371.620789 480.753357,375.847168 
	C474.270142,379.235321 466.894318,381.906586 459.678406,382.673584 
	C448.324371,383.880310 436.705505,383.802277 425.788513,379.089081 
	C425.485138,378.958130 425.130524,378.942535 424.832245,378.803528 
	C419.586823,376.358673 414.228333,373.610413 414.132812,366.967316 
	C414.038422,360.400208 419.450623,357.254120 424.513306,355.492889 
	C443.935089,348.736450 463.253235,348.194794 482.162170,358.771423 
z"/>
<path fill="#F6B32D" opacity="1.000000" stroke="none" 
	d="
M202.018829,353.859558 
	C203.910782,354.636169 205.459381,355.243225 206.940414,355.985138 
	C211.092606,358.065247 214.850006,360.668091 214.929932,365.864258 
	C215.013000,371.263306 211.225418,374.505463 206.948380,376.336639 
	C201.364944,378.727051 195.443253,381.015594 189.480042,381.687256 
	C177.133209,383.077911 164.708115,382.951721 152.938492,377.837799 
	C151.720154,377.308472 150.422562,376.864471 149.351349,376.111206 
	C145.658173,373.514404 141.775192,370.873322 142.056488,365.622162 
	C142.320877,360.686768 145.784424,357.985596 149.835373,356.109131 
	C166.763885,348.267334 184.071396,347.873474 202.018829,353.859558 
z"/>
<path fill="#FBFAF8" opacity="1.000000" stroke="none" 
	d="
M226.991882,258.862091 
	C246.085892,265.798615 256.089905,281.011383 255.006943,300.985199 
	C254.126160,317.230042 241.618225,331.898987 225.000092,336.176392 
	C208.948517,340.307922 192.133209,334.367706 182.550140,321.180450 
	C172.559250,307.431976 172.029800,289.489594 181.195419,275.273071 
	C190.168610,261.355042 206.700195,254.523499 223.224579,257.917053 
	C224.360733,258.150391 225.478760,258.471924 226.991882,258.862091 
M247.005402,302.079132 
	C247.056213,300.749268 247.149734,299.419464 247.151245,298.089539 
	C247.166946,284.266449 239.052841,272.493011 226.216858,267.689178 
	C213.543884,262.946350 199.324493,266.609314 190.370117,276.923462 
	C181.737747,286.866730 180.131500,301.575256 186.397827,313.298584 
	C192.866455,325.400391 205.606705,331.735718 219.915604,329.965881 
	C233.206543,328.322021 243.556396,317.980560 247.005402,302.079132 
z"/>
<path fill="#FBFAF8" opacity="1.000000" stroke="none" 
	d="
M431.949890,337.025146 
	C409.385468,339.816437 389.085602,324.936707 386.108429,303.765381 
	C382.907349,281.002106 397.411316,261.188446 420.093597,257.338806 
	C440.700623,253.841324 461.153015,268.403656 465.459930,289.640106 
	C469.930267,311.682526 455.688568,332.066498 431.949890,337.025146 
M454.985779,283.731232 
	C454.239319,282.435242 453.570221,281.086914 452.734558,279.851257 
	C443.967621,266.888550 426.827881,262.086273 412.489380,268.547272 
	C398.179321,274.995453 390.531250,291.182800 394.653656,306.297150 
	C399.664520,324.669128 418.807129,334.814514 436.672913,328.566864 
	C454.609039,322.294647 462.811920,302.833801 454.985779,283.731232 
z"/>
<path fill="#8D1D1D" opacity="1.000000" stroke="none" 
	d="
M350.715454,357.166077 
	C354.003754,357.166077 357.292053,357.166077 361.011841,357.166077 
	C361.090149,369.549225 354.871979,377.860626 345.432678,383.604279 
	C328.360260,393.992554 310.720703,393.855591 293.472687,383.917908 
	C283.589447,378.223511 277.819702,369.544617 277.138855,357.137177 
	C281.256927,357.137177 284.869202,357.137177 289.120544,357.405151 
	C306.151947,371.947723 335.675049,371.702118 350.715454,357.166077 
z"/>
<path fill="#FAF6F5" opacity="1.000000" stroke="none" 
	d="
M350.267212,357.183655 
	C335.675049,371.702118 306.151947,371.947723 289.609894,357.411743 
	C309.579773,357.167297 329.699371,357.184296 350.267212,357.183655 
z"/>
<path fill="#272320" opacity="1.000000" stroke="none" 
	d="
M330.123383,323.800751 
	C334.279022,328.350372 333.410675,331.386383 328.001709,332.944885 
	C326.515045,333.373199 325.230682,334.565247 323.739410,334.902954 
	C320.951508,335.534241 317.937347,336.536163 315.280182,336.022949 
	C312.062439,335.401367 309.020508,333.542023 306.080170,331.900116 
	C302.900482,330.124603 303.276031,325.910187 306.955994,323.985199 
	C314.437195,320.071777 322.120361,319.444763 330.123383,323.800751 
z"/>
<path fill="#F5A51D" opacity="1.000000" stroke="none" 
	d="
M320.011475,345.139008 
	C319.862213,348.005737 319.718109,350.418701 319.574005,352.831635 
	C318.969727,352.803345 318.365448,352.775055 317.761169,352.746765 
	C317.761169,348.612823 317.761169,344.478912 317.761169,340.344971 
	C318.224915,340.276093 318.688660,340.207184 319.152405,340.138306 
	C319.440460,341.653931 319.728546,343.169586 320.011475,345.139008 
z"/>
<path fill="#252222" opacity="1.000000" stroke="none" 
	d="
M246.972443,302.521545 
	C243.556396,317.980560 233.206543,328.322021 219.915604,329.965881 
	C205.606705,331.735718 192.866455,325.400391 186.397827,313.298584 
	C180.131500,301.575256 181.737747,286.866730 190.370117,276.923462 
	C199.324493,266.609314 213.543884,262.946350 226.216858,267.689178 
	C239.052841,272.493011 247.166946,284.266449 247.151245,298.089539 
	C247.149734,299.419464 247.056213,300.749268 246.972443,302.521545 
M206.345215,277.928894 
	C200.263580,275.001038 195.543304,275.543640 191.810822,279.599609 
	C188.535751,283.158539 187.807724,289.298279 190.154846,293.565186 
	C192.682343,298.160004 197.666382,300.412445 202.831818,299.209808 
	C207.094254,298.217438 209.883942,295.489899 211.007278,291.342377 
	C212.384903,286.256042 211.136444,281.810669 206.345215,277.928894 
M211.643799,323.000946 
	C218.283722,322.058380 221.400253,318.304688 220.125244,312.785431 
	C219.037766,308.077942 214.188675,304.944427 209.846832,307.149323 
	C207.333679,308.425537 204.821609,311.636414 204.256058,314.378204 
	C203.326843,318.883057 206.499969,321.701538 211.643799,323.000946 
M226.955780,284.775757 
	C227.476837,289.712677 229.716949,291.909943 233.611954,291.087952 
	C237.163223,290.338440 238.720505,287.733551 237.790939,284.498749 
	C237.298157,282.783844 234.930481,280.218689 233.742172,280.387054 
	C231.399445,280.719055 229.288681,282.687897 226.955780,284.775757 
z"/>
<path fill="#242221" opacity="1.000000" stroke="none" 
	d="
M455.128754,284.086670 
	C462.811920,302.833801 454.609039,322.294647 436.672913,328.566864 
	C418.807129,334.814514 399.664520,324.669128 394.653656,306.297150 
	C390.531250,291.182800 398.179321,274.995453 412.489380,268.547272 
	C426.827881,262.086273 443.967621,266.888550 452.734558,279.851257 
	C453.570221,281.086914 454.239319,282.435242 455.128754,284.086670 
M403.154297,296.302673 
	C407.371246,300.025146 412.080078,300.715759 416.935089,297.940430 
	C421.247223,295.475403 422.928894,291.364136 422.406982,286.504395 
	C421.855957,281.373566 418.962646,277.868164 414.031647,276.434601 
	C409.233032,275.039581 405.146088,276.632904 402.092896,280.517334 
	C398.735809,284.788513 399.006439,290.119659 403.154297,296.302673 
M429.802521,309.791168 
	C425.044769,305.597900 420.295624,305.495697 416.894409,309.513458 
	C413.853577,313.105560 414.465881,318.457703 418.302216,321.319305 
	C421.474396,323.685486 424.878448,323.669312 427.949371,321.396545 
	C431.827087,318.526703 432.309784,314.673584 429.802521,309.791168 
M446.462585,280.905975 
	C443.592102,279.260010 440.698914,279.505432 439.150940,282.348633 
	C438.223297,284.052460 437.923950,287.297089 438.941681,288.553192 
	C440.169678,290.068878 443.223541,291.076050 445.253021,290.766907 
	C449.313782,290.148376 450.008575,285.762299 446.462585,280.905975 
z"/>
<path fill="#F9F9F9" opacity="1.000000" stroke="none" 
	d="
M206.658051,278.144592 
	C211.136444,281.810669 212.384903,286.256042 211.007278,291.342377 
	C209.883942,295.489899 207.094254,298.217438 202.831818,299.209808 
	C197.666382,300.412445 192.682343,298.160004 190.154846,293.565186 
	C187.807724,289.298279 188.535751,283.158539 191.810822,279.599609 
	C195.543304,275.543640 200.263580,275.001038 206.658051,278.144592 
z"/>
<path fill="#F7F7F7" opacity="1.000000" stroke="none" 
	d="
M211.250885,322.952026 
	C206.499969,321.701538 203.326843,318.883057 204.256058,314.378204 
	C204.821609,311.636414 207.333679,308.425537 209.846832,307.149323 
	C214.188675,304.944427 219.037766,308.077942 220.125244,312.785431 
	C221.400253,318.304688 218.283722,322.058380 211.250885,322.952026 
z"/>
<path fill="#F8F8F8" opacity="1.000000" stroke="none" 
	d="
M227.018890,284.377747 
	C229.288681,282.687897 231.399445,280.719055 233.742172,280.387054 
	C234.930481,280.218689 237.298157,282.783844 237.790939,284.498749 
	C238.720505,287.733551 237.163223,290.338440 233.611954,291.087952 
	C229.716949,291.909943 227.476837,289.712677 227.018890,284.377747 
z"/>
<path fill="#F9F9F9" opacity="1.000000" stroke="none" 
	d="
M402.897369,296.020325 
	C399.006439,290.119659 398.735809,284.788513 402.092896,280.517334 
	C405.146088,276.632904 409.233032,275.039581 414.031647,276.434601 
	C418.962646,277.868164 421.855957,281.373566 422.406982,286.504395 
	C422.928894,291.364136 421.247223,295.475403 416.935089,297.940430 
	C412.080078,300.715759 407.371246,300.025146 402.897369,296.020325 
z"/>
<path fill="#F7F7F7" opacity="1.000000" stroke="none" 
	d="
M429.982727,310.113281 
	C432.309784,314.673584 431.827087,318.526703 427.949371,321.396545 
	C424.878448,323.669312 421.474396,323.685486 418.302216,321.319305 
	C414.465881,318.457703 413.853577,313.105560 416.894409,309.513458 
	C420.295624,305.495697 425.044769,305.597900 429.982727,310.113281 
z"/>
<path fill="#F7F7F7" opacity="1.000000" stroke="none" 
	d="
M446.797272,281.115723 
	C450.008575,285.762299 449.313782,290.148376 445.253021,290.766907 
	C443.223541,291.076050 440.169678,290.068878 438.941681,288.553192 
	C437.923950,287.297089 438.223297,284.052460 439.150940,282.348633 
	C440.698914,279.505432 443.592102,279.260010 446.797272,281.115723 
z"/>
</svg>